<svg width="8" height="9" fill="none" xmlns="http://www.w3.org/2000/svg"><path d="M4 0c.359 0 .704.141.965.395.261.253.418.6.438.968l.002.081h2.27a.32.32 0 01.222.09.337.337 0 01-.177.574l-.044.003h-.344l-.554 5.787a1.236 1.236 0 01-.357.759 1.174 1.174 0 01-.75.34L5.594 9H2.406a1.17 1.17 0 01-.77-.291 1.23 1.23 0 01-.404-.734l-.01-.078-.554-5.786H.324a.32.32 0 01-.213-.082.336.336 0 01-.108-.206L0 1.778a.34.34 0 01.08-.22c.051-.06.123-.1.2-.11l.044-.004h2.27c0-.383.149-.75.412-1.02A1.38 1.38 0 014 0zm2.68 2.111H1.32l.548 5.721a.562.562 0 00.155.338c.088.09.204.148.328.16l.055.003h3.188c.26 0 .48-.189.53-.445l.009-.056.546-5.72zM4.757 3.333a.32.32 0 01.213.082.34.34 0 01.108.206l.003.046v3.11a.338.338 0 01-.087.228.32.32 0 01-.442.031.336.336 0 01-.116-.213l-.004-.045V3.667a.34.34 0 01.095-.236.32.32 0 01.23-.098zm-1.514 0a.32.32 0 01.213.082c.06.053.098.127.109.206l.003.046v3.11a.338.338 0 01-.088.228.32.32 0 01-.441.031.336.336 0 01-.117-.213l-.003-.045V3.667c0-.089.034-.174.095-.236a.32.32 0 01.23-.098zM4 .667a.746.746 0 00-.513.205.786.786 0 00-.241.508l-.003.064h1.514a.789.789 0 00-.222-.55A.747.747 0 004 .667z" fill="#F5F7FD"/></svg>